<svg width="56" height="56" viewBox="0 0 1080 1080" fill="none" xmlns="http://www.w3.org/2000/svg">
<circle cx="541" cy="540.5" r="519" fill="black"/>
<path d="M224.048 347.937C222.28 354.301 194.979 369.953 203.464 397.106C184.019 396.398 141.099 401.772 124.977 428.925C110.083 454.009 107.923 468.351 108.795 473.457C109.289 472.999 109.733 473.106 109.068 474.532C108.96 474.236 108.867 473.878 108.795 473.457C107.454 474.701 105.747 480.115 124.977 474.532C113.664 483.371 122.219 487.896 149.372 537.11C149.366 537.055 149.36 537 149.354 536.946C147.634 533.756 148.626 530.424 149.354 536.946C150.985 539.971 155.054 542.867 164.102 537.11C158.445 565.747 181.379 581.416 232.29 628.933C149.372 610.949 20.2322 537.11 63.4595 403.469C77.1033 361.289 133.893 317.965 224.048 347.937Z" fill="#FAC140"/>
<path d="M231.939 401.602C223.454 374.449 224.868 354.934 226.636 348.57C148.367 324.709 98.2346 372.665 86.1728 405.635C40.6973 529.94 181.028 615.851 243.606 632.821C192.695 585.304 191.281 516.151 196.938 487.513C178.271 499.392 176.432 528.525 177.846 541.606C150.694 492.392 166.533 462.412 177.846 453.573C151.542 461.209 140.017 473.725 137.542 479.028C136.128 475.139 137.33 460.573 153.452 433.421C169.573 406.268 212.494 400.895 231.939 401.602Z" fill="white"/>
<path d="M919.481 412.499C924.917 391.617 899.57 385.053 898.437 380.158C956.196 353.183 998.411 388.401 1006.34 417.624C1034.22 520.402 952.098 577.27 912.007 590.321C944.623 553.778 957.76 507.836 954.136 485.813C966.096 494.948 955.042 510.111 954.136 520.171C971.532 482.323 961.384 443.767 954.136 436.97C970.988 442.843 978.372 467.966 979.958 472.045C980.864 469.054 980.094 457.852 969.765 436.97C959.436 416.088 931.939 411.955 919.481 412.499Z" fill="#E04483"/>
<path d="M895.503 421.491C900.94 400.609 900.034 385.6 898.901 380.706C948.369 357.867 979.763 403.274 985.199 426.385C1010.2 537.32 928.12 586.261 888.029 599.313C920.645 562.769 921.551 509.586 917.927 487.562C929.887 496.698 931.064 519.103 930.158 529.163C947.554 491.314 937.406 468.257 930.158 461.46C947.01 467.333 954.394 476.958 955.98 481.037C956.886 478.046 956.116 466.844 945.787 445.962C935.458 425.08 907.961 420.947 895.503 421.491Z" fill="white"/>
<path fill-rule="evenodd" clip-rule="evenodd" d="M610.785 352.547C583.058 316.894 491.994 243.301 366.674 299.405C274.605 340.623 269.83 478.135 316.989 511.642C310.634 515.172 301.079 515.885 279.866 504.846C289.686 518.613 316.418 554.562 366.674 557.795C322.772 554.971 296.836 648.465 321.231 725.891C326.534 749.225 344.565 774.681 358.353 783.166C357.944 780.663 357.017 777.21 356.008 773.453C352.748 761.311 348.634 745.986 358.353 749.225C362.975 766.169 399.718 840.44 520.631 896.654C508.964 882.866 508.964 868.017 514.267 868.017C517.327 868.017 522.375 871.596 529.456 876.615C549.633 890.917 586.31 916.916 640.483 905.139C672.565 905.139 692.116 878.574 701.548 865.758C705.836 859.931 708.033 856.946 708.364 860.593C709.213 869.926 703.768 886.401 700.94 893.472L723.213 877.563C773.275 837.683 791.447 793.772 794.276 776.802C807.852 775.953 809.125 796.954 808.064 807.561C827.58 792.287 845.186 739.68 851.55 715.285C881.248 582.069 834.934 554.421 808.064 557.25C847.944 552.159 869.935 523.309 875.945 509.521C855.581 513.764 842.712 507.753 838.823 504.218C900.34 505.279 944.886 345.122 838.823 298.454C753.077 260.726 676.545 324.263 659.575 359.971L640.483 388.609V389.418L610.785 352.547Z" fill="#E04483"/>
<path fill-rule="evenodd" clip-rule="evenodd" d="M586.808 352.546C559.08 316.894 468.016 243.301 342.697 299.405C250.628 340.622 245.853 478.134 293.011 511.642C286.657 515.172 277.101 515.885 255.889 504.846C265.709 518.613 292.441 554.562 342.697 557.795C298.795 554.971 272.859 648.465 297.254 725.891C302.557 749.225 320.588 774.681 334.376 783.166C333.966 780.663 333.039 777.21 332.031 773.452C328.771 761.311 324.656 745.985 334.376 749.225C338.997 766.169 375.741 840.44 496.654 896.654C484.987 882.866 484.987 868.017 490.29 868.017C493.349 868.017 498.398 871.595 505.478 876.614C525.655 890.917 562.333 916.916 616.506 905.139C648.588 905.139 668.138 878.573 677.57 865.757C681.859 859.93 684.055 856.946 684.387 860.592C685.235 869.926 679.79 886.401 676.962 893.472L699.236 877.563C749.298 837.683 767.47 793.772 770.298 776.802C783.874 775.953 785.147 796.954 784.087 807.56C803.602 792.287 821.209 739.679 827.573 715.285C857.271 582.069 810.956 554.421 784.087 557.25C823.967 552.158 845.957 523.309 851.967 509.521C831.603 513.763 818.734 507.753 814.845 504.218C876.362 505.278 920.909 345.122 814.845 298.454C729.099 260.726 652.567 324.263 635.597 359.971L616.506 388.608V389.418L586.808 352.546Z" fill="#FAC140"/>
<mask id="mask0_2096_4" style="mask-type:alpha" maskUnits="userSpaceOnUse" x="255" y="279" width="624" height="630">
<path fill-rule="evenodd" clip-rule="evenodd" d="M586.807 352.547C559.079 316.894 468.015 243.301 342.695 299.405C250.627 340.623 245.852 478.135 293.01 511.643C286.656 515.172 277.1 515.885 255.887 504.846C265.708 518.613 292.439 554.562 342.695 557.795C298.794 554.971 272.858 648.465 297.252 725.891C302.556 749.226 320.586 774.681 334.375 783.166C333.965 780.663 333.038 777.21 332.029 773.453C328.77 761.311 324.655 745.986 334.375 749.226C338.996 766.169 375.74 840.44 496.652 896.654C484.985 882.866 484.985 868.017 490.289 868.017C493.348 868.017 498.396 871.596 505.477 876.615C525.654 890.917 562.332 916.916 616.505 905.139C648.586 905.139 668.137 878.574 677.569 865.758C681.857 859.931 684.054 856.946 684.385 860.593C685.234 869.926 679.789 886.401 676.961 893.472L699.234 877.563C749.296 837.683 767.469 793.772 770.297 776.802C783.873 775.953 785.146 796.954 784.085 807.561C803.601 792.287 821.208 739.68 827.572 715.285C857.269 582.069 810.955 554.421 784.085 557.25C823.965 552.159 845.956 523.309 851.966 509.521C831.602 513.764 818.733 507.753 814.844 504.218C876.361 505.279 920.908 345.122 814.844 298.454C729.098 260.726 652.566 324.263 635.596 359.971L616.505 388.609V389.418L586.807 352.547Z" fill="#F5E499"/>
</mask>
<g mask="url(#mask0_2096_4)">
<path d="M373.671 514.722C387.025 531.096 412.297 555.177 453.002 557.795C409.1 554.971 383.165 648.465 407.559 725.891C412.862 749.225 430.893 774.681 444.682 783.166C442.949 772.576 431.954 744.983 444.682 749.225C449.303 766.169 486.046 840.44 606.959 896.654C595.292 882.866 595.292 868.017 600.595 868.017C612.372 868.017 653.627 921.049 726.811 905.139L856.209 773.257L969.698 465.672L893.332 291.728L726.811 217.483L407.559 254.605L453.167 280.061L416.044 274.757L335.626 317.379C320.212 325.549 311.511 342.449 313.817 359.741C315.284 370.748 324.353 379.166 335.438 379.81L407.559 384.003L447.917 406.2L556.049 465.672L567.056 460.974L577.261 487.946L556.049 500.673L546.503 527.189C545.442 533.2 539.078 547.341 562.412 571.736C557.463 572.322 533.603 554.706 531.654 542.038L533.775 555.827C526.351 552.798 517.017 539.068 517.866 531.432C504.475 542.31 456.475 548.08 373.671 514.722Z" fill="white"/>
</g>
<path d="M649.385 578.1C628.172 587.646 622.515 619.465 624.99 632.193C623.929 632.193 621.711 612.96 624.99 590.828C629.232 562.19 654.146 529.152 674.84 540.978C689.689 549.463 681.536 563.632 649.385 578.1Z" fill="#070544"/>
<path d="M587.6 579.504C608.813 589.05 614.469 620.869 611.995 633.597C613.055 633.597 615.273 614.365 611.995 592.232C607.752 563.595 582.839 530.556 562.144 542.382C547.295 550.867 555.448 565.036 587.6 579.504Z" fill="#070544"/>
<path d="M435.136 354.305C448.571 359.255 482.653 373.185 511.502 389.306C547.564 409.458 581.4 425.752 604 383.5C615.5 362 598.596 339.096 594 334.5L649 340C637.333 354.849 620.536 389.731 640.9 408.398C666.355 431.732 685.447 350.063 773.48 354.305C761.459 355.719 735.509 362.79 727.872 379.761C748.378 373.397 795.329 370.215 819.087 408.398C815.198 405.923 805.511 401.185 797.875 402.034C809.895 411.933 824.39 440.429 786.207 475.218C790.096 469.561 797.026 456.551 793.632 449.763C785.5 463.197 753.964 485.612 692.871 467.794C692.518 472.036 696.265 481.582 714.084 485.824C709.134 489.36 691.599 492.188 661.052 475.218C658.224 473.804 656.597 475.642 672.719 494.31C676.962 499.259 685.235 512.128 684.386 524.007C678.729 514.108 662.749 494.31 644.082 494.31C625.415 494.31 621.455 507.037 621.809 513.401C604.838 495.724 566.019 473.733 546.503 527.189C543.707 515.072 542.549 489.52 556.708 473.714C544.11 483.902 522.164 497.882 499.835 500.673C505.845 497.491 519.351 487.309 525.29 472.036C511.502 484.764 463.561 503.219 382.104 475.218C378.569 479.461 379.559 492.188 411.802 509.158C385.993 507.037 337.133 492.188 348.164 449.763C346.396 447.641 341.164 447.217 334.376 462.49C333.315 448.702 338.618 417.944 368.316 405.216C363.013 403.448 349.437 401.61 337.558 408.398C353.821 393.195 405.226 368.942 480.744 393.549C480.744 389.66 471.622 376.367 435.136 354.305Z" fill="black"/>
<path d="M475.441 430.671C484.16 434.408 500.896 440.217 514.684 441.278C508.321 463.551 480.037 470.268 465.895 469.915C420.288 468.775 409.681 438.803 408.621 423.247C434.076 415.822 460.592 424.307 475.441 430.671Z" fill="white"/>
<mask id="mask1_2096_4" style="mask-type:alpha" maskUnits="userSpaceOnUse" x="408" y="420" width="107" height="50">
<path d="M475.441 430.671C484.16 434.408 500.896 440.217 514.684 441.278C508.321 463.551 480.037 470.268 465.895 469.915C420.288 468.775 409.681 438.803 408.621 423.247C434.076 415.822 460.592 424.307 475.441 430.671Z" fill="#D9D9D9"/>
</mask>
<g mask="url(#mask1_2096_4)">
<ellipse cx="465.895" cy="431.732" rx="25.4553" ry="23.334" fill="#070544"/>
<path fill-rule="evenodd" clip-rule="evenodd" d="M440.436 450.361C435.343 446.13 431.591 440.618 429.842 434.128C424.775 415.33 438.352 395.191 460.401 388.113C457.263 388.309 454.061 388.827 450.854 389.691C429.872 395.347 416.574 413.7 421.152 430.686C423.646 439.938 430.93 446.876 440.436 450.361Z" fill="#070544"/>
<path fill-rule="evenodd" clip-rule="evenodd" d="M481.301 456.22C486.806 453.677 491.425 449.684 494.503 444.352C503.417 428.913 496.15 407.892 478.307 396.432C481.038 397.345 483.749 398.558 486.384 400.079C503.617 410.029 511.058 429.404 503.004 443.355C498.616 450.955 490.535 455.377 481.301 456.22Z" fill="#070544"/>
</g>
<path d="M715.054 421.63C707.29 424.6 692.494 428.995 680.592 429.052C684.32 450.807 708.043 459.2 720.193 459.844C759.375 461.922 770.792 433.98 772.908 419.169C751.664 410.296 728.276 416.573 715.054 421.63Z" fill="white"/>
<mask id="mask2_2096_4" style="mask-type:alpha" maskUnits="userSpaceOnUse" x="680" y="414" width="93" height="46">
<path d="M715.054 421.63C707.29 424.6 692.494 428.995 680.592 429.052C684.32 450.807 708.043 459.2 720.193 459.844C759.375 461.922 770.792 433.98 772.908 419.169C751.664 410.296 728.276 416.573 715.054 421.63Z" fill="#D9D9D9"/>
</mask>
<g mask="url(#mask2_2096_4)">
<ellipse cx="21.8916" cy="22.4007" rx="21.8916" ry="22.4007" transform="matrix(-0.99673 -0.0808002 -0.0808002 0.99673 746.785 402.75)" fill="#070544"/>
<path fill-rule="evenodd" clip-rule="evenodd" d="M743.531 442.903C748.225 439.209 751.869 434.195 753.872 428.106C759.673 410.471 749.597 390.257 731.246 381.952C733.921 382.358 736.626 383.076 739.308 384.126C756.855 390.996 766.83 409.482 761.588 425.416C758.733 434.097 751.95 440.229 743.531 442.903Z" fill="#070544"/>
<path fill-rule="evenodd" clip-rule="evenodd" d="M708.049 445.67C703.528 442.854 699.878 438.712 697.653 433.397C691.21 418.004 699.069 398.395 715.253 388.669C712.841 389.353 710.423 390.325 708.046 391.597C692.502 399.92 684.621 417.943 690.443 431.852C693.615 439.428 700.199 444.222 708.049 445.67Z" fill="#070544"/>
</g>
<path d="M751.64 668.089C609.886 710.457 494.336 677.295 454.281 655.417C461.738 688.645 489.714 746.102 596.004 750.631C721.789 755.991 745.314 697.544 751.64 668.089Z" fill="white" stroke="#070544" stroke-width="16.9702" stroke-linejoin="bevel"/>
<path d="M561.025 708.799C491.177 705.823 460.518 677.623 453.92 663.895L464.268 659.028C479.381 685.15 535.07 703.093 561.025 708.799Z" fill="#070544"/>
<path d="M641.963 713.31C711.811 716.287 744.757 690.797 752.5 677.68L742.602 671.95C725.322 696.692 668.309 709.833 641.963 713.31Z" fill="#070544"/>
<path d="M430.556 676.7C431.276 659.798 443.705 635.858 486.14 651.467C451.976 650.011 440.028 662.651 430.556 676.7Z" fill="#070544" stroke="#070544" stroke-width="4.24255"/>
<path d="M717.864 657.519C736.79 651.852 768.117 652.663 767.718 691.275C755.785 664.28 737.111 659.681 717.864 657.519Z" fill="#070544" stroke="#070544" stroke-width="4.24255"/>
<path d="M653.628 771.136C630.718 777.076 608.728 773.611 600.596 771.136C576.202 767.873 608.021 788.106 624.991 791.288C641.961 794.47 682.265 763.712 653.628 771.136Z" fill="#FAC140"/>
<path fill-rule="evenodd" clip-rule="evenodd" d="M458.012 434.817C457.88 435.867 458.846 436.852 460.169 437.018C461.385 437.171 461.468 436.451 461.576 435.519C461.585 435.437 461.595 435.353 461.606 435.268C461.654 434.878 461.889 434.486 462.097 434.139C462.448 433.551 462.723 433.091 461.892 432.987C460.569 432.821 458.144 433.767 458.012 434.817ZM475.685 440.965C478.595 440.965 480.953 439.078 480.953 436.75C480.953 434.612 478.962 434.624 476.382 434.64C476.154 434.642 475.921 434.643 475.685 434.643C474.605 434.643 473.455 434.322 472.436 434.038C470.712 433.556 469.364 433.18 469.364 434.643C469.364 436.971 472.776 440.965 475.685 440.965Z" fill="white"/>
<path fill-rule="evenodd" clip-rule="evenodd" d="M737.759 423.822C738.074 424.832 737.297 425.973 736.024 426.37C734.855 426.735 734.646 426.042 734.375 425.144C734.351 425.064 734.327 424.983 734.301 424.901C734.184 424.526 733.884 424.182 733.618 423.877C733.168 423.36 732.816 422.957 733.616 422.707C734.889 422.31 737.443 422.812 737.759 423.822ZM721.451 432.998C718.588 433.513 715.933 432.073 715.521 429.782C715.143 427.677 717.105 427.337 719.647 426.897C719.872 426.858 720.101 426.818 720.334 426.776C721.397 426.585 722.472 426.066 723.424 425.606C725.036 424.827 726.297 424.218 726.556 425.658C726.967 427.949 724.315 432.484 721.451 432.998Z" fill="white"/>
</svg>
